{"asset":{"version":"2.0","generator":"source-mdl"},"scenes":[{"name":"npcs/turret/turret.mdl","nodes":[0,1,2,3]}],"nodes":[{"name":"npcs/turret/turret.mdl0","mesh":0},{"name":"npcs/turret/turret.mdl1","mesh":1},{"name":"npcs/turret/turret.mdl2","mesh":2},{"name":"npcs/turret/turret.mdl3","mesh":3}],"meshes":[{"primitives":[{"mode":4,"attributes":{"POSITION":0,"NORMAL":1,"TEXCOORD_0":2},"indices":3,"material":0}]},{"primitives":[{"mode":4,"attributes":{"POSITION":0,"NORMAL":1,"TEXCOORD_0":2},"indices":4,"material":1}]},{"primitives":[{"mode":4,"attributes":{"POSITION":0,"NORMAL":1,"TEXCOORD_0":2},"indices":5,"material":2}]},{"primitives":[{"mode":4,"attributes":{"POSITION":0,"NORMAL":1,"TEXCOORD_0":2},"indices":6,"material":3}]}],"accessors":[{"bufferView":0,"componentType":5126,"count":12052,"max":[14.158353805541992,68.29644012451172,24.99676513671875],"min":[-14.1586332321167,0.005924224853515625,-22.51910400390625],"type":"VEC3"},{"bufferView":1,"componentType":5126,"count":12052,"type":"VEC3"},{"bufferView":2,"componentType":5126,"count":12052,"type":"VEC2"},{"bufferView":3,"componentType":5123,"count":8970,"byteOffset":0,"type":"SCALAR"},{"bufferView":3,"componentType":5123,"count":5250,"byteOffset":17940,"type":"SCALAR"},{"bufferView":3,"componentType":5123,"count":13932,"byteOffset":28440,"type":"SCALAR"},{"bufferView":3,"componentType":5123,"count":216,"byteOffset":56304,"type":"SCALAR"}],"bufferViews":[{"buffer":0,"byteOffset":0,"byteLength":144624},{"buffer":0,"byteOffset":144624,"byteLength":144624},{"buffer":0,"byteOffset":289248,"byteLength":96416},{"buffer":0,"byteOffset":385664,"byteLength":56736}],"buffers":[{"byteLength":442400,"uri":"data:application/octet-stream;base64,"}],"materials":[{"name":"models/npcs/turret/turret_frame02"},{"name":"models/npcs/turret/turret_frame01"},{"name":"models/npcs/turret/turret_casing"},{"name":"models/npcs/turret/turret_eye"},{"name":"turret_broken"},{"name":"turret_casing_bounce"},{"name":"turret_frame01_bounce"},{"name":"turret_frame02_bounce"},{"name":"turret_eye_bounce"},{"name":"turret_casing_speed"},{"name":"turret_frame01_speed"},{"name":"turret_frame02_speed"},{"name":"turret_eye_speed"},{"name":"turret_broken_bounce"},{"name":"turret_broken_speed"}]}