{"asset":{"version":"2.0","generator":"source-mdl"},"scenes":[{"name":"brutal\\candles.mdl","nodes":[0]}],"nodes":[{"name":"brutal\\candles.mdl0","mesh":0}],"meshes":[{"primitives":[{"mode":4,"attributes":{"POSITION":0,"NORMAL":1,"TEXCOORD_0":2},"indices":3,"material":0}]}],"accessors":[{"bufferView":0,"componentType":5126,"count":371,"max":[9.298538208007812,11.6261625289917,17.733430862426758],"min":[-3.350673198699951,-3.6340510845184326,-0.6402760148048401],"type":"VEC3"},{"bufferView":1,"componentType":5126,"count":371,"type":"VEC3"},{"bufferView":2,"componentType":5126,"count":371,"type":"VEC2"},{"bufferView":3,"componentType":5123,"count":906,"byteOffset":0,"type":"SCALAR"}],"bufferViews":[{"buffer":0,"byteOffset":0,"byteLength":4452},{"buffer":0,"byteOffset":4452,"byteLength":4452},{"buffer":0,"byteOffset":8904,"byteLength":2968},{"buffer":0,"byteOffset":11872,"byteLength":1812}],"buffers":[{"byteLength":13684,"uri":"data:application/octet-stream;base64,"}],"materials":[{"name":"candles"}]}